#!OML:ASF H:\Swim 2\Project 1\Capture day 1\Session 1\male.ASF
:FULLY-SPECIFIED
:DEGREES
2018
root 1.92283 15.1115 11.1973 103.721 -36.0087 15.4746
lowerback -23.3494 1.87994 1.7812
upperback -15.9709 1.86708 -7.20423
thorax -4.46491 0.247787 -8.58592
lowerneck -23.463 -4.90711 -3.59039
upperneck 15.851 -6.27455 3.66279
head 9.04131 -2.73816 0.935166
rclavicle -6.36111e-014 4.13472e-014
rhumerus 75.5122 -10.8119 -42.574
rradius 76.0965
rwrist -63.8786
rhand -33.7755 -9.44868
rfingers 7.12502
rthumb -6.96289 -39.3142
lclavicle -6.36111e-014 4.13472e-014
lhumerus 80.8212 -21.0476 52.1187
lradius 91.491
lwrist 41.8369
lhand -38.9146 -8.5529
lfingers 7.12502
lthumb -11.9213 21.0877
rfemur -43.6218 -16.9956 -20.7907
rtibia 28.8947
rfoot 10.2152 -31.8857
rtoes 32.1503
lfemur -53.2712 -14.2471 16.9228
ltibia 22.2819
lfoot -17.0048 39.2051
ltoes 9.38921
2019
root 1.91576 15.1048 11.1841 103.33 -35.8261 15.7958
lowerback -22.8784 1.8489 2.11538
upperback -15.8171 1.77121 -7.19197
thorax -4.52603 0.176003 -8.78612
lowerneck -23.616 -4.80332 -3.46963
upperneck 16.9654 -6.20367 3.63822
head 9.45012 -2.68204 0.908397
rclavicle -3.33958e-014 6.91771e-014
rhumerus 76.5046 -11.9153 -41.8966
rradius 73.3425
rwrist -64.6397
rhand -32.9492 -9.83911
rfingers 7.12502
rthumb -6.16513 -39.7294
lclavicle -3.33958e-014 6.91771e-014
lhumerus 82.0392 -20.0082 52.4883
lradius 88.6629
lwrist 42.7371
lhand -38.2799 -7.65794
lfingers 7.12502
lthumb -11.3092 22.0172
rfemur -42.4031 -15.605 -21.1221
rtibia 26.3881
rfoot 9.81106 -33.6916
rtoes 32.7943
lfemur -53.5857 -16.8154 19.1743
ltibia 20.7467
lfoot -24.3514 40.112
ltoes 14.8012
2020
root 1.91045 15.0996 11.1613 102.958 -35.6506 16.0866
lowerback -22.3702 1.80443 2.39132
upperback -15.6616 1.67126 -7.17521
thorax -4.60773 0.107541 -8.94747
lowerneck -23.756 -4.72247 -3.38851
upperneck 18.0665 -6.17329 3.70064
head 9.86363 -2.63663 0.913427
rclavicle -9.54166e-015 -3.97569e-015
rhumerus 77.4399 -13.0151 -41.1043
rradius 70.5023
rwrist -65.5178
rhand -32.1296 -10.1117
rfingers 7.12502
rthumb -5.37388 -40.0235
lclavicle -9.54166e-015 -3.97569e-015
lhumerus 83.3759 -19.0048 52.7176
lradius 85.6613
lwrist 43.6015
lhand -37.7204 -6.77798
lfingers 7.12502
lthumb -10.7695 22.9259
rfemur -41.4481 -14.1128 -21.5057
rtibia 24.3159
rfoot 8.91863 -35.4668
rtoes 33.5401
lfemur -54.042 -18.7861 20.8882
ltibia 19.6326
lfoot -31.6729 39.797
ltoes 20.0832
2021
root 1.90586 15.0965 11.1311 102.611 -35.4788 16.3302
lowerback -21.8281 1.75152 2.63047
upperback -15.5013 1.56952 -7.14921
thorax -4.70408 0.0420391 -9.07631
lowerneck -23.846 -4.66266 -3.38934
upperneck 19.1068 -6.17525 3.88264
head 10.2608 -2.59798 0.971424
rclavicle -8.11041e-014 5.08889e-014
rhumerus 78.3246 -14.1022 -40.197
rradius 67.6198
rwrist -66.5547
rhand -31.3473 -10.265
rfingers 7.12502
rthumb -4.61846 -40.1947
lclavicle -8.11041e-014 5.08889e-014
lhumerus 84.8158 -18.0091 52.7867
lradius 82.5
lwrist 44.5172
lhand -37.249 -6.07758
lfingers 7.12502
lthumb -10.3148 23.6495
rfemur -40.7853 -12.5274 -21.9246
rtibia 22.6988
rfoot 7.51935 -37.1702
rtoes 34.4024
lfemur -54.4894 -20.0104 21.8455
ltibia 18.9058
lfoot -37.4284 38.7875
ltoes 24.3289
2022
root 1.90167 15.0954 11.0946 102.319 -35.308 16.4948
lowerback -21.2757 1.69439 2.84875
upperback -15.3361 1.4681 -7.10834
thorax -4.8029 -0.0204948 -9.17488
lowerneck -23.8627 -4.60645 -3.46871
upperneck 20.0427 -6.18534 4.17692
head 10.6196 -2.55678 1.08475
rclavicle -7.4743e-014 1.34378e-013
rhumerus 79.1602 -15.1624 -39.1596
rradius 64.7358
rwrist -67.7471
rhand -30.6856 -10.2091
rfingers 7.12502
rthumb -3.97957 -40.1517
lclavicle -7.4743e-014 1.34378e-013
lhumerus 86.3297 -16.9936 52.7089
lradius 79.1869
lwrist 45.5161
lhand -36.7655 -5.64663
lfingers 7.12502
lthumb -9.84843 24.103
rfemur -40.4648 -10.8865 -22.3488
rtibia 21.5444
rfoot 5.72838 -38.7425
rtoes 35.3425
lfemur -54.8303 -20.4401 21.9527
ltibia 18.5318
lfoot -40.8664 37.8234
ltoes 27.0436
